<svg xmlns="http://www.w3.org/2000/svg" width="47.808" height="74.175" viewBox="0 0 47.808 74.175">
  <g id="anorexia" transform="translate(-91)">
    <path id="Path_45" data-name="Path 45" d="M132.289,8.692a6.526,6.526,0,0,0,6.519-6.519V0H91V2.173a6.526,6.526,0,0,0,6.519,6.519h10.865v4.346H97.519a10.728,10.728,0,0,1-5.158-1.362,59.856,59.856,0,0,0,2.05,5.953L111.084,21.8l-1.053,4.215L96.4,22.6c.611,1.528,1.174,3.069,1.669,4.631l13.018,3.255L110.032,34.7l-10.78-2.7a29.2,29.2,0,0,1,.441,4.934c0,2.617-1.872,4.9-3.854,7.315-1.85,2.253-3.822,4.932-4.516,8.041h47.164c-.694-3.109-2.666-5.788-4.516-8.041-1.982-2.417-3.854-4.7-3.854-7.315a29.2,29.2,0,0,1,.441-4.934l-10.78,2.7-1.053-4.215,13.018-3.255c.5-1.563,1.058-3.1,1.67-4.632l-13.635,3.409L118.724,21.8,135.4,17.627a59.887,59.887,0,0,0,2.049-5.951,10.726,10.726,0,0,1-5.158,1.363H121.423V8.692Zm-15.212,34.77h-4.346V39.116h4.346Z" transform="translate(0)" fill="#fff"/>
    <path id="Path_46" data-name="Path 46" d="M135.428,408.53v-2.173a20.666,20.666,0,0,1,2.01-8.012A27.758,27.758,0,0,0,139.611,391H92.13a27.764,27.764,0,0,0,2.173,7.345,20.665,20.665,0,0,1,2.01,8.012v2.173H113.7V395.346h4.346V408.53Z" transform="translate(-0.966 -334.355)" fill="#fff"/>
  </g>
</svg>
