<svg xmlns="http://www.w3.org/2000/svg" width="68.5" height="68.5" viewBox="0 0 68.5 68.5">
  <path id="icons8-brain" d="M28.687,3a5.707,5.707,0,0,0-5.708,5.708c0,.049.017.1.017.145a12.683,12.683,0,0,0-1.444-.145A12.845,12.845,0,0,0,8.708,21.552a12.6,12.6,0,0,0,.647,3.83,14.26,14.26,0,0,0,0,23.736,12.6,12.6,0,0,0-.647,3.83,12.8,12.8,0,0,0,11.55,12.71A7.127,7.127,0,0,0,34.4,64.365V62.938a5.714,5.714,0,0,0-5.708-5.708,2.854,2.854,0,1,1,0-5.708A11.3,11.3,0,0,1,34.4,53.11V28.6a14.016,14.016,0,0,1-8.563,2.938,2.854,2.854,0,0,1,0-5.708A8.573,8.573,0,0,0,34.4,17.271V8.708A5.707,5.707,0,0,0,28.687,3ZM45.813,3A5.707,5.707,0,0,0,40.1,8.708v8.563a8.573,8.573,0,0,0,8.563,8.562,2.854,2.854,0,1,1,0,5.708A14.029,14.029,0,0,1,40.1,28.609V64.365a7.127,7.127,0,0,0,14.137,1.293,12.783,12.783,0,0,0,11.506-12.27,16.931,16.931,0,0,1-5.664.987,2.854,2.854,0,1,1,0-5.708A11.428,11.428,0,0,0,71.5,37.25a14.25,14.25,0,0,0-6.355-11.868,12.6,12.6,0,0,0,.647-3.83A12.845,12.845,0,0,0,52.948,8.708a12.683,12.683,0,0,0-1.444.145c0-.049.017-.1.017-.145A5.707,5.707,0,0,0,45.813,3Z" transform="translate(-3 -3)" fill="#fff"/>
</svg>
