<?xml version="1.0" encoding="iso-8859-1"?>
<!-- Generator: Adobe Illustrator 19.0.0, SVG Export Plug-In . SVG Version: 6.00 Build 0)  -->
<svg version="1.1" id="Capa_1" xmlns="http://www.w3.org/2000/svg" xmlns:xlink="http://www.w3.org/1999/xlink" x="0px" y="0px"
	 viewBox="0 0 512 512" style="enable-background:new 0 0 512 512;" xml:space="preserve">
<g>
	<g>
		<g>
			<path d="M182.857,201.143c-0.268-6.721-1.837-13.327-4.622-19.451c-4.359-1.841-9.231-2.07-13.744-0.648
				c-12.258,3.556-25.465-0.353-33.812-10.009c-8.724-8.723-15.607-15.607-30.107-15.607c-5.049,0-9.143-4.093-9.143-9.143
				c0-5.049,4.093-9.143,9.143-9.143c16.739,0.284,32.494,7.959,43.035,20.965c4.059,5.382,11.199,7.413,17.482,4.973
				c2.393-0.484,4.81-0.844,7.24-1.076l-0.124-0.227c-6.862-10.094-11.241-21.668-12.777-33.777
				c-0.949-8.234-5.928-15.459-13.285-19.276c-4.475-2.291-6.261-7.766-3.998-12.255c2.263-4.49,7.727-6.31,12.23-4.075
				c5.826,3.17,10.96,7.473,15.099,12.656c0.606-0.626,1.205-1.228,1.776-1.799c4.482-4.482,6.464-6.679,6.464-11.822
				c0-5.049,4.093-9.143,9.143-9.143c5.049,0,9.143,4.093,9.143,9.143c-0.108,9.587-4.432,18.64-11.822,24.75
				c-4.482,4.482-6.464,6.679-6.464,11.822c1.871,8.915,5.438,17.388,10.509,24.955c9.556,14.407,15.371,30.969,16.92,48.188
				c0,21.043,19.35,48.356,45.263,66.002c-1.214-18.582-3.559-37.072-7.022-55.368c-7.411-39.683-11.032-79.98-10.813-120.348
				v-1.714c0.007-2.49,0.01-5.208-0.088-8.022l-0.005-0.213c-0.049-1.335-0.129-2.694-0.238-4.059l-0.025-0.37
				c-0.113-1.337-0.271-2.68-0.464-4.018l-0.063-0.472c-0.2-1.307-0.456-2.603-0.755-3.885c-0.044-0.19-0.083-0.381-0.129-0.57
				c-0.308-1.244-0.681-2.464-1.104-3.66c-0.076-0.217-0.151-0.434-0.232-0.648c-0.435-1.154-0.941-2.28-1.513-3.372
				c-0.117-0.224-0.239-0.446-0.362-0.667c-0.591-1.061-1.258-2.077-1.995-3.041c-0.583-0.825-1.221-1.61-1.909-2.35
				c-7.724-6.429-17.678-9.539-27.688-8.652c-24.63,0.955-48.286,9.871-67.419,25.411c-28.698,21.504-52.787,48.55-70.839,79.536
				l-18.134,36.286c-6.698,11.389-12.64,23.206-17.786,35.375C9.196,248.179,0,287.67,0,429.714C0,467.67,19.152,512,73.143,512
				c2.429,0,41.232-0.027,43.554-0.071c44.33-0.695,84.372-26.643,103.116-66.822c14.974-36.282,23.558-74.88,25.375-114.088
				c-21.354,6.702-44.889,30.182-55.866,41.16c-2.755,2.755-5.489,5.301-8.215,7.746c-0.264,0.495-0.574,0.963-0.928,1.397
				c-9.708,14.314-15.123,31.104-15.607,48.393c1.184,18.104-7.815,35.36-23.339,44.75c-4.515,2.244-9.994,0.41-12.248-4.099
				s-0.434-9.993,4.07-12.258c9.208-6.386,14.264-17.235,13.232-28.393c0.308-9.778,1.914-19.473,4.778-28.827
				c-19.482,10.471-42.839,10.818-62.623,0.93c-1.74-0.327-3.425-0.9-5.005-1.7c-8.238-0.248-16.222,2.869-22.114,8.632
				c-2.302,2.344-5.686,3.273-8.862,2.432c-3.176-0.841-5.657-3.322-6.498-6.498c-0.841-3.176,0.088-6.56,2.432-8.862
				c5.564-5.249,12.121-9.334,19.285-12.014c-1.179-1.957-2.14-3.715-2.714-4.862c-2.244-4.512-0.414-9.988,4.092-12.245
				s9.987-0.442,12.256,4.057c2.234,4.479,5.186,8.563,8.74,12.088c1.592,0.478,3.148,1.073,4.653,1.78
				c0.422,0.142,0.832,0.317,1.226,0.524c25.312,12.424,50.136,4.435,80.462-25.9c14.07-14.07,41.772-41.699,69.833-47.314
				c0.025-0.608,0.074-1.181,0.097-1.792c-10.713-1.784-21.083-5.223-30.739-10.193c-0.92,0.689-1.964,1.196-3.074,1.495
				c-0.705,0.982-1.696,2.696-2.464,4.027c-6.335,14.405-20.594,23.695-36.33,23.67c-14.5,0-21.384,6.884-30.107,15.607
				c-2.302,2.344-5.686,3.273-8.862,2.432c-3.176-0.841-5.657-3.322-6.498-6.498c-0.841-3.176,0.088-6.56,2.432-8.862
				c4.166-4.362,8.718-8.337,13.601-11.878c-1.568-1.156-3.021-2.31-4.334-3.381c-4.848-3.955-7.187-5.705-11.946-5.705
				c-5.049,0-9.143-4.093-9.143-9.143s4.093-9.143,9.143-9.143c8.8,0.165,17.207,3.677,23.509,9.821
				c5.906,5.781,13.95,8.847,22.205,8.464c12.107,0,16.188-7.054,20.491-14.527c1.151-2.066,2.425-4.062,3.815-5.977
				c-4.597-2.751-9.119-5.555-13.493-8.3c-10.018-6.911-20.742-12.738-31.991-17.384c-10.851-4.093-22.709-4.698-33.92-1.732
				c-5.802,1.317-11.722,2.047-17.671,2.178l-0.079,0.018c-4.479,3.521-8.049,8.065-10.41,13.25
				c-2.269,4.499-7.751,6.314-12.256,4.057c-4.505-2.256-6.336-7.733-4.092-12.245c1.588-3.125,3.4-6.132,5.422-8.996
				c-4.737-1.804-9.095-4.476-12.85-7.879c-3.515-3.579-3.489-9.322,0.058-12.87c3.547-3.547,9.29-3.573,12.87-0.058
				c6.001,4.572,13.431,6.863,20.965,6.464c4.872-0.121,9.719-0.743,14.464-1.857c14.335-3.59,29.419-2.778,43.286,2.33
				c12.66,5.047,24.711,11.501,35.929,19.241c15.862,11.395,33.629,19.871,52.467,25.03c0.011-0.931,0.04-1.835,0.047-2.772
				C210.544,268.641,182.857,231.099,182.857,201.143z"/>
			<path d="M494.187,222.322c-5.089-12.034-10.965-23.72-17.589-34.982l-18.491-36.965c-18.037-30.87-42.071-57.817-70.688-79.25
				C368.286,55.586,344.63,46.67,320,45.714c-10.01-0.887-19.963,2.223-27.687,8.651c-0.688,0.74-1.326,1.525-1.909,2.35
				c-0.737,0.963-1.404,1.979-1.994,3.039c-0.124,0.223-0.247,0.447-0.364,0.674c-0.571,1.09-1.075,2.213-1.51,3.365
				c-0.081,0.218-0.158,0.437-0.235,0.657c-0.423,1.194-0.795,2.412-1.103,3.655c-0.046,0.189-0.086,0.38-0.129,0.57
				c-0.299,1.282-0.555,2.578-0.755,3.885l-0.063,0.472c-0.193,1.337-0.351,2.68-0.464,4.016l-0.026,0.393
				c-0.108,1.353-0.188,2.702-0.237,4.026l-0.009,0.375c-0.093,2.76-0.092,5.429-0.085,7.874v1.714
				c0.219,40.368-3.401,80.666-10.813,120.348c-3.464,18.296-5.809,36.787-7.022,55.368c25.914-17.646,45.263-44.959,45.263-66.002
				c1.549-17.219,7.364-33.78,16.92-48.188c5.07-7.568,8.638-16.04,10.509-24.955c0-5.143-1.982-7.34-6.464-11.822
				c-7.389-6.109-11.714-15.162-11.822-24.75c0-5.049,4.093-9.143,9.143-9.143s9.143,4.093,9.143,9.143
				c0,5.143,1.982,7.339,6.464,11.821c0.571,0.571,1.17,1.173,1.776,1.799c4.139-5.183,9.273-9.486,15.099-12.656
				c4.515-2.244,9.994-0.41,12.248,4.099s0.434,9.993-4.07,12.258c-7.331,3.824-12.289,11.035-13.232,19.25
				c-1.536,12.109-5.914,23.683-12.777,33.777l-0.124,0.227c2.431,0.233,4.847,0.592,7.241,1.076
				c6.284,2.438,13.422,0.407,17.482-4.973c10.541-13.006,26.297-20.681,43.035-20.965c5.049,0,9.143,4.093,9.143,9.143
				c0,5.049-4.093,9.143-9.143,9.143c-14.5,0-21.384,6.884-30.107,15.607c-8.343,9.663-21.554,13.574-33.812,10.009
				c-4.513-1.422-9.385-1.193-13.745,0.648c-2.784,6.123-4.354,12.729-4.622,19.45c0,29.956-27.687,67.498-63.907,87.686
				c0.007,0.937,0.037,1.84,0.047,2.772c18.837-5.159,36.604-13.635,52.467-25.03c11.217-7.74,23.269-14.194,35.929-19.241
				c13.867-5.108,28.951-5.921,43.286-2.33c4.745,1.114,9.592,1.736,14.464,1.857c7.585,0.408,15.063-1.924,21.071-6.572
				c3.649-3.43,9.372-3.311,12.875,0.268c3.481,3.553,3.457,9.244-0.054,12.768c-3.756,3.403-8.114,6.076-12.85,7.879
				c2.021,2.864,3.833,5.871,5.422,8.996c2.244,4.512,0.414,9.988-4.092,12.245c-4.505,2.256-9.987,0.442-12.256-4.057
				c-2.35-5.221-5.955-9.779-10.495-13.268c-5.947-0.131-11.865-0.861-17.666-2.178c-11.211-2.971-23.07-2.365-33.92,1.732
				c-11.249,4.646-21.973,10.473-31.991,17.384c-4.374,2.745-8.896,5.55-13.493,8.3c1.39,1.914,2.664,3.91,3.815,5.977
				c4.304,7.473,8.384,14.527,20.491,14.527c8.256,0.383,16.299-2.683,22.205-8.464c6.302-6.144,14.709-9.656,23.509-9.821
				c5.049,0,9.143,4.093,9.143,9.143s-4.093,9.143-9.143,9.143c-4.759,0-7.098,1.75-11.947,5.706
				c-1.313,1.071-2.766,2.225-4.334,3.381c4.883,3.541,9.435,7.516,13.602,11.878c3.515,3.579,3.489,9.322-0.058,12.87
				c-3.547,3.547-9.29,3.573-12.87,0.058c-8.723-8.723-15.607-15.607-30.107-15.607c-15.736,0.026-29.996-9.264-36.331-23.669
				c-0.768-1.33-1.759-3.045-2.464-4.027c-1.11-0.298-2.154-0.806-3.074-1.495c-9.656,4.97-20.027,8.409-30.739,10.193
				c0.023,0.611,0.072,1.184,0.097,1.792c28.06,5.615,55.762,33.243,69.833,47.314c30.501,30.5,55.438,38.464,80.875,25.714
				c0.091-0.046,0.181-0.069,0.273-0.114l0.169-0.071c1.624-0.781,3.309-1.431,5.037-1.944c3.545-3.525,6.492-7.604,8.727-12.076
				c2.269-4.499,7.751-6.314,12.256-4.057c4.505,2.256,6.336,7.733,4.092,12.245c-0.572,1.143-1.529,2.894-2.703,4.842
				c7.163,2.685,13.717,6.776,19.274,12.033c3.515,3.579,3.489,9.322-0.058,12.87c-3.547,3.547-9.29,3.573-12.87,0.058
				c-5.866-5.77-13.831-8.897-22.056-8.659c-1.597,0.814-3.302,1.396-5.064,1.727c-19.785,9.888-43.141,9.541-62.623-0.93
				c2.348,7.898,3.864,16.019,4.523,24.232c5.751,2.945,12.107,4.518,18.568,4.595c5.049,0.007,9.137,4.107,9.129,9.156
				S389.049,448.007,384,448c-5.062-0.109-10.096-0.786-15.008-2.018c2.056,4.982,5.565,9.229,10.071,12.187
				c4.414,2.369,6.121,7.835,3.839,12.295c-2.26,4.44-7.677,6.226-12.134,4c-15.524-9.39-24.524-26.646-23.339-44.75
				c-0.484-17.289-5.899-34.079-15.607-48.393c-0.354-0.435-0.664-0.903-0.928-1.397c-2.726-2.445-5.46-4.991-8.215-7.746
				c-10.977-10.977-34.512-34.458-55.866-41.16c1.816,39.208,10.401,77.806,25.375,114.088
				c18.748,40.183,58.797,66.132,103.134,66.822c2.304,0.045,41.107,0.071,43.536,0.071C492.848,512,512,467.67,512,429.714
				C512,287.67,502.804,248.179,494.187,222.322z"/>
			<path d="M265.438,77.563c0.081-1.275,0.187-2.557,0.323-3.872c0.072-0.701,0.162-1.397,0.253-2.109
				c0.169-1.307,0.382-2.615,0.624-3.941c0.14-0.771,0.283-1.531,0.451-2.306c0.27-1.233,0.608-2.46,0.959-3.694
				c0.246-0.871,0.473-1.737,0.763-2.604c0.339-1.001,0.77-1.982,1.174-2.972c1.143-2.917,2.584-5.708,4.299-8.33V9.143
				c-0.003-5.048-4.095-9.14-9.143-9.143h-18.286c-5.048,0.003-9.14,4.095-9.143,9.143v38.594c1.715,2.622,3.156,5.413,4.299,8.33
				c0.405,0.99,0.835,1.971,1.174,2.972c0.29,0.867,0.517,1.733,0.763,2.604c0.352,1.233,0.689,2.46,0.959,3.694
				c0.169,0.775,0.311,1.535,0.451,2.306c0.242,1.325,0.456,2.634,0.624,3.941c0.092,0.711,0.181,1.407,0.253,2.109
				c0.136,1.314,0.242,2.597,0.323,3.872c0.044,0.68,0.096,1.351,0.127,2.015c0.057,1.241,0.089,2.427,0.113,3.61
				c0.012,0.622,0.037,1.251,0.043,1.85c0.015,1.529,0.015,2.987,0.012,4.374l0.001,0.212v1.804c0,5.818,0.075,11.338,0.193,16.684
				c0.013,0.606,0.02,1.234,0.035,1.834c0.122,5.007,0.301,9.787,0.514,14.415c0.037,0.801,0.072,1.611,0.111,2.401
				c0.224,4.447,0.483,8.736,0.777,12.866c0.057,0.793,0.115,1.575,0.174,2.356c0.306,4.063,0.64,8.001,1.004,11.784
				c0.064,0.674,0.135,1.326,0.201,1.992c0.381,3.809,0.782,7.519,1.21,11.078c0.053,0.438,0.109,0.854,0.162,1.289
				c0.406,3.312,0.829,6.521,1.265,9.648c0.079,0.565,0.155,1.148,0.234,1.709c0.445,3.134,0.905,6.166,1.367,9.145
				c0.128,0.82,0.255,1.649,0.383,2.459c0.433,2.721,0.868,5.393,1.304,8.018L256,200.35l0.208-1.244
				c0.438-2.623,0.873-5.299,1.306-8.027c0.126-0.791,0.249-1.601,0.374-2.402c0.466-2.994,0.926-6.042,1.374-9.193
				c0.079-0.56,0.156-1.143,0.234-1.709c0.435-3.127,0.859-6.335,1.264-9.648c0.053-0.434,0.11-0.85,0.162-1.289
				c0.428-3.559,0.829-7.27,1.21-11.078c0.066-0.667,0.136-1.318,0.201-1.992c0.364-3.783,0.698-7.721,1.004-11.784
				c0.059-0.781,0.117-1.564,0.174-2.356c0.297-4.134,0.557-8.432,0.779-12.896c0.038-0.773,0.073-1.564,0.109-2.347
				c0.214-4.635,0.392-9.424,0.515-14.439c0.015-0.6,0.022-1.228,0.035-1.834c0.117-5.346,0.193-10.866,0.193-16.684v-1.804
				l0.001-0.212c-0.003-1.388-0.003-2.845,0.012-4.374c0.006-0.6,0.031-1.228,0.043-1.85c0.023-1.182,0.056-2.369,0.113-3.61
				C265.342,78.914,265.395,78.243,265.438,77.563z"/>
		</g>
	</g>
</g>
<g>
</g>
<g>
</g>
<g>
</g>
<g>
</g>
<g>
</g>
<g>
</g>
<g>
</g>
<g>
</g>
<g>
</g>
<g>
</g>
<g>
</g>
<g>
</g>
<g>
</g>
<g>
</g>
<g>
</g>
</svg>
