<svg xmlns="http://www.w3.org/2000/svg" width="68.633" height="68.417" viewBox="0 0 68.633 68.417">
  <path id="respiratory" d="M14.878,2A12.694,12.694,0,0,0,3.589,8.665,14.505,14.505,0,0,0,2.076,14.8a4.266,4.266,0,1,0,8.532.12V14.8a6.964,6.964,0,0,1,.629-2.4c.558-1.117.793-1.867,3.64-1.867A4.266,4.266,0,1,0,15,2Zm23.1,6.852a23.3,23.3,0,0,0-2.483.094A21.962,21.962,0,0,0,16.23,26.954,21.009,21.009,0,0,0,17.615,38.7c1.367,3.443,1.5,6.815.1,9.536h.1a14.146,14.146,0,0,0-1.987,7.9v.194c.795,8.877,9.564,15.028,18.77,13.966.031,0,.07,0,.1,0,7-.743,13.543-4.828,18.168-11.557,4.653-6.756,7.455-16.2,7.455-28.219C60.322,18.46,50.175,8.835,37.978,8.852Zm25.369,1.466a3.143,3.143,0,0,0-1.184.408,3.247,3.247,0,0,0-1.151,4.457,25.061,25.061,0,0,1,2.851,6,9.5,9.5,0,0,1,.415,1.72,3.163,3.163,0,0,0,6.324-.161,15.42,15.42,0,0,0-.622-3.353,30.884,30.884,0,0,0-3.493-7.522A3.172,3.172,0,0,0,63.346,10.318ZM38.052,22.557a8.565,8.565,0,1,1-8.565,8.565A8.564,8.564,0,0,1,38.052,22.557ZM8.066,39.641A2.533,2.533,0,0,0,5.7,41.863a4.39,4.39,0,0,1-2.008,3.212,2.535,2.535,0,1,0,2.322,4.437A9.863,9.863,0,0,0,10.762,42.6a2.534,2.534,0,0,0-2.068-2.924A2.426,2.426,0,0,0,8.066,39.641Zm26.56,10.325a5.139,5.139,0,1,1-5.139,5.139A5.141,5.141,0,0,1,34.625,49.967Zm30.869,6.852a5.059,5.059,0,1,0,5.059,5.059,5.061,5.061,0,0,0-5.059-5.059ZM8.982,63.785a3.317,3.317,0,1,0,2.348.971,3.317,3.317,0,0,0-2.348-.971Z" transform="translate(-1.969 -2)" fill="#fff"/>
</svg>
