<svg xmlns="http://www.w3.org/2000/svg" width="57.285" height="75.168" viewBox="0 0 57.285 75.168">
  <g id="stomach" transform="translate(-60.904)">
    <g id="Group_56" data-name="Group 56" transform="translate(60.904)">
      <g id="Group_55" data-name="Group 55" transform="translate(0)">
        <path id="Path_44" data-name="Path 44" d="M118.185,39.933H90.667c-2.52,4.2-9.324,4.649-14.21,4.535C68.794,44.289,60.9,51.653,60.9,61.428V72.966a2.2,2.2,0,0,0,2.2,2.2h8.809a2.2,2.2,0,0,0,2.2-2.2V60.792a3.248,3.248,0,0,1,6.491-.181c.571,6.915,5.46,10.676,12.313,10.12,11.1-.9,25.566-12.952,25.264-30.8ZM83.979,26.177a9.606,9.606,0,0,1,7.808,9.352h26C115.595,23,104.143,13.507,90.7,13.507H88.242a5.314,5.314,0,0,1-5.316-5.316V2.2a2.2,2.2,0,0,0-2.2-2.2H71.915a2.2,2.2,0,0,0-2.2,2.2V7.683C69.713,17.164,75.839,24.323,83.979,26.177Z" transform="translate(-60.904)" fill="#fff"/>
      </g>
    </g>
  </g>
</svg>
